<?xml version="1.0" encoding="utf-8"?>
<!-- Generator: Adobe Illustrator 23.0.4, SVG Export Plug-In . SVG Version: 6.00 Build 0)  -->
<svg version="1.1" id="Layer_1" xmlns="http://www.w3.org/2000/svg" xmlns:xlink="http://www.w3.org/1999/xlink" x="0px" y="0px"
	 viewBox="0 0 230 60" style="enable-background:new 0 0 230 60;" xml:space="preserve">
<style type="text/css">
	.st0{fill:#FFFFFF;}
</style>
<g>
	<path class="st0" d="M39.52,57H24.31l-8.9-14.84V57H1.68V5.07H15.4V34.3l7.79-14.39h15.58L27.5,38.46L39.52,57z"/>
	<path class="st0" d="M52.13,43.13c1.19,2.47,3.71,3.71,7.57,3.71c2.27,0,4.38-0.79,6.31-2.37l8.98,7.57
		c-3.71,4.01-8.95,6.01-15.73,6.01c-6.33,0-11.41-1.84-15.25-5.53c-3.83-3.68-5.75-8.32-5.75-13.91c0-5.64,1.87-10.34,5.6-14.1
		s8.44-5.64,14.13-5.64c5.64,0,10.28,1.84,13.91,5.53c3.63,3.69,5.45,8.32,5.45,13.91c0,1.63-0.2,3.24-0.59,4.82
		C76.76,43.13,52.13,43.13,52.13,43.13z M51.91,34.3h12.46c-0.84-2.97-2.84-4.45-6.01-4.45C55.14,29.85,52.99,31.34,51.91,34.3z"/>
	<path class="st0" d="M95.16,27.11c0.69-2.52,2.05-4.48,4.08-5.86c2.03-1.38,4.38-2.08,7.05-2.08v14.84
		c-2.97-0.4-5.56,0.19-7.79,1.74c-2.23,1.56-3.34,4.04-3.34,7.46V57H81.43V19.91h13.72v7.2H95.16z"/>
	<path class="st0" d="M154.13,19.91h14.47L157.84,57H143.9l-4.6-17.43L134.7,57h-13.95l-10.76-37.09h14.47l4.3,20.55l5.34-20.55
		h10.39l5.34,20.55L154.13,19.91z"/>
	<path class="st0" d="M179.95,17.09c-2.08,0-3.87-0.75-5.38-2.26c-1.51-1.51-2.26-3.28-2.26-5.3s0.75-3.8,2.26-5.3
		c1.51-1.51,3.3-2.26,5.38-2.26c2.03,0,3.79,0.75,5.3,2.26c1.51,1.51,2.26,3.28,2.26,5.3s-0.75,3.8-2.26,5.3
		C183.74,16.34,181.98,17.09,179.95,17.09z M173.05,57V19.91h13.72V57H173.05z"/>
	<path class="st0" d="M214.89,18.87c4.05,0,7.31,1.4,9.76,4.19s3.67,6.96,3.67,12.5V57H214.6V37.05c0-3.31-1.53-4.97-4.6-4.97
		c-1.63,0-2.88,0.52-3.75,1.56s-1.3,2.47-1.3,4.3V57h-13.72V19.91h13.72v3.63C207.22,20.43,210.54,18.87,214.89,18.87z"/>
</g>
</svg>
